<mxfile host="app.diagrams.net" modified="2023-04-05T04:52:08.628Z" agent="Mozilla/5.0 (Windows NT 10.0; Win64; x64) AppleWebKit/537.36 (KHTML, like Gecko) Chrome/112.0.0.0 Safari/537.36" etag="W5AFlGo-2hAev_FpOIOx" version="21.1.4" type="github">
  <diagram id="C5RBs43oDa-KdzZeNtuy" name="Page-1">
    <mxGraphModel dx="662" dy="1471" grid="1" gridSize="10" guides="1" tooltips="1" connect="1" arrows="1" fold="1" page="1" pageScale="1" pageWidth="827" pageHeight="1169" math="0" shadow="0">
      <root>
        <mxCell id="WIyWlLk6GJQsqaUBKTNV-0" />
        <mxCell id="WIyWlLk6GJQsqaUBKTNV-1" parent="WIyWlLk6GJQsqaUBKTNV-0" />
        <mxCell id="YdwpByFGt3zNUZSkN5gy-24" style="edgeStyle=orthogonalEdgeStyle;rounded=0;orthogonalLoop=1;jettySize=auto;html=1;exitX=0.5;exitY=1;exitDx=0;exitDy=0;entryX=0.5;entryY=0;entryDx=0;entryDy=0;" edge="1" parent="WIyWlLk6GJQsqaUBKTNV-1" source="YdwpByFGt3zNUZSkN5gy-2" target="YdwpByFGt3zNUZSkN5gy-23">
          <mxGeometry relative="1" as="geometry" />
        </mxCell>
        <mxCell id="YdwpByFGt3zNUZSkN5gy-2" value="環境作成・最新化" style="rounded=0;whiteSpace=wrap;html=1;" vertex="1" parent="WIyWlLk6GJQsqaUBKTNV-1">
          <mxGeometry x="300" y="90" width="120" height="40" as="geometry" />
        </mxCell>
        <mxCell id="YdwpByFGt3zNUZSkN5gy-10" style="edgeStyle=orthogonalEdgeStyle;rounded=0;orthogonalLoop=1;jettySize=auto;html=1;exitX=0.5;exitY=1;exitDx=0;exitDy=0;" edge="1" parent="WIyWlLk6GJQsqaUBKTNV-1">
          <mxGeometry relative="1" as="geometry">
            <mxPoint x="240" y="330" as="sourcePoint" />
            <mxPoint x="240" y="330" as="targetPoint" />
          </mxGeometry>
        </mxCell>
        <mxCell id="YdwpByFGt3zNUZSkN5gy-57" style="edgeStyle=orthogonalEdgeStyle;rounded=0;orthogonalLoop=1;jettySize=auto;html=1;exitX=0.5;exitY=1;exitDx=0;exitDy=0;" edge="1" parent="WIyWlLk6GJQsqaUBKTNV-1" source="YdwpByFGt3zNUZSkN5gy-11">
          <mxGeometry relative="1" as="geometry">
            <mxPoint x="360" y="430" as="targetPoint" />
            <Array as="points">
              <mxPoint x="474" y="400" />
              <mxPoint x="360" y="400" />
            </Array>
          </mxGeometry>
        </mxCell>
        <mxCell id="YdwpByFGt3zNUZSkN5gy-11" value="ローカルにてメタデータ直接修正" style="rounded=0;whiteSpace=wrap;html=1;" vertex="1" parent="WIyWlLk6GJQsqaUBKTNV-1">
          <mxGeometry x="414" y="260" width="120" height="40" as="geometry" />
        </mxCell>
        <mxCell id="YdwpByFGt3zNUZSkN5gy-56" style="edgeStyle=orthogonalEdgeStyle;rounded=0;orthogonalLoop=1;jettySize=auto;html=1;exitX=0.5;exitY=1;exitDx=0;exitDy=0;entryX=0.5;entryY=0;entryDx=0;entryDy=0;" edge="1" parent="WIyWlLk6GJQsqaUBKTNV-1" source="YdwpByFGt3zNUZSkN5gy-12" target="YdwpByFGt3zNUZSkN5gy-54">
          <mxGeometry relative="1" as="geometry" />
        </mxCell>
        <mxCell id="YdwpByFGt3zNUZSkN5gy-12" value="メタデータ取得" style="rounded=0;whiteSpace=wrap;html=1;" vertex="1" parent="WIyWlLk6GJQsqaUBKTNV-1">
          <mxGeometry x="190" y="330" width="120" height="40" as="geometry" />
        </mxCell>
        <mxCell id="YdwpByFGt3zNUZSkN5gy-33" style="edgeStyle=orthogonalEdgeStyle;rounded=0;orthogonalLoop=1;jettySize=auto;html=1;exitX=0.5;exitY=1;exitDx=0;exitDy=0;entryX=0.5;entryY=0;entryDx=0;entryDy=0;" edge="1" parent="WIyWlLk6GJQsqaUBKTNV-1" source="YdwpByFGt3zNUZSkN5gy-13" target="YdwpByFGt3zNUZSkN5gy-32">
          <mxGeometry relative="1" as="geometry" />
        </mxCell>
        <mxCell id="YdwpByFGt3zNUZSkN5gy-13" value="静的解析&lt;br&gt;フォーマット" style="rounded=0;whiteSpace=wrap;html=1;" vertex="1" parent="WIyWlLk6GJQsqaUBKTNV-1">
          <mxGeometry x="300" y="590" width="120" height="40" as="geometry" />
        </mxCell>
        <mxCell id="YdwpByFGt3zNUZSkN5gy-19" style="edgeStyle=orthogonalEdgeStyle;rounded=0;orthogonalLoop=1;jettySize=auto;html=1;exitX=0.5;exitY=1;exitDx=0;exitDy=0;entryX=0.5;entryY=0;entryDx=0;entryDy=0;" edge="1" parent="WIyWlLk6GJQsqaUBKTNV-1" source="YdwpByFGt3zNUZSkN5gy-14" target="YdwpByFGt3zNUZSkN5gy-13">
          <mxGeometry relative="1" as="geometry" />
        </mxCell>
        <mxCell id="YdwpByFGt3zNUZSkN5gy-14" value="環境変数を定義" style="rounded=0;whiteSpace=wrap;html=1;" vertex="1" parent="WIyWlLk6GJQsqaUBKTNV-1">
          <mxGeometry x="300" y="510" width="120" height="40" as="geometry" />
        </mxCell>
        <mxCell id="YdwpByFGt3zNUZSkN5gy-29" style="edgeStyle=orthogonalEdgeStyle;rounded=0;orthogonalLoop=1;jettySize=auto;html=1;exitX=0.5;exitY=1;exitDx=0;exitDy=0;entryX=0.5;entryY=0;entryDx=0;entryDy=0;" edge="1" parent="WIyWlLk6GJQsqaUBKTNV-1" source="YdwpByFGt3zNUZSkN5gy-21" target="YdwpByFGt3zNUZSkN5gy-12">
          <mxGeometry relative="1" as="geometry" />
        </mxCell>
        <mxCell id="YdwpByFGt3zNUZSkN5gy-21" value="環境にて開発" style="rounded=0;whiteSpace=wrap;html=1;" vertex="1" parent="WIyWlLk6GJQsqaUBKTNV-1">
          <mxGeometry x="190" y="260" width="120" height="40" as="geometry" />
        </mxCell>
        <mxCell id="YdwpByFGt3zNUZSkN5gy-27" style="edgeStyle=orthogonalEdgeStyle;rounded=0;orthogonalLoop=1;jettySize=auto;html=1;exitX=0.5;exitY=1;exitDx=0;exitDy=0;entryX=0.5;entryY=0;entryDx=0;entryDy=0;" edge="1" parent="WIyWlLk6GJQsqaUBKTNV-1" source="YdwpByFGt3zNUZSkN5gy-23" target="YdwpByFGt3zNUZSkN5gy-21">
          <mxGeometry relative="1" as="geometry" />
        </mxCell>
        <mxCell id="YdwpByFGt3zNUZSkN5gy-28" style="edgeStyle=orthogonalEdgeStyle;rounded=0;orthogonalLoop=1;jettySize=auto;html=1;exitX=0.5;exitY=1;exitDx=0;exitDy=0;entryX=0.5;entryY=0;entryDx=0;entryDy=0;" edge="1" parent="WIyWlLk6GJQsqaUBKTNV-1" source="YdwpByFGt3zNUZSkN5gy-23" target="YdwpByFGt3zNUZSkN5gy-11">
          <mxGeometry relative="1" as="geometry" />
        </mxCell>
        <mxCell id="YdwpByFGt3zNUZSkN5gy-23" value="featureブランチ作成" style="rounded=0;whiteSpace=wrap;html=1;" vertex="1" parent="WIyWlLk6GJQsqaUBKTNV-1">
          <mxGeometry x="300" y="160" width="120" height="40" as="geometry" />
        </mxCell>
        <mxCell id="YdwpByFGt3zNUZSkN5gy-35" style="edgeStyle=orthogonalEdgeStyle;rounded=0;orthogonalLoop=1;jettySize=auto;html=1;exitX=0.5;exitY=1;exitDx=0;exitDy=0;entryX=0.5;entryY=0;entryDx=0;entryDy=0;" edge="1" parent="WIyWlLk6GJQsqaUBKTNV-1" source="YdwpByFGt3zNUZSkN5gy-32" target="YdwpByFGt3zNUZSkN5gy-34">
          <mxGeometry relative="1" as="geometry" />
        </mxCell>
        <mxCell id="YdwpByFGt3zNUZSkN5gy-32" value="Validate Deploy" style="rounded=0;whiteSpace=wrap;html=1;" vertex="1" parent="WIyWlLk6GJQsqaUBKTNV-1">
          <mxGeometry x="300" y="670" width="120" height="40" as="geometry" />
        </mxCell>
        <mxCell id="YdwpByFGt3zNUZSkN5gy-40" style="edgeStyle=orthogonalEdgeStyle;rounded=0;orthogonalLoop=1;jettySize=auto;html=1;exitX=0.5;exitY=1;exitDx=0;exitDy=0;entryX=0.5;entryY=0;entryDx=0;entryDy=0;" edge="1" parent="WIyWlLk6GJQsqaUBKTNV-1" source="YdwpByFGt3zNUZSkN5gy-34" target="YdwpByFGt3zNUZSkN5gy-39">
          <mxGeometry relative="1" as="geometry" />
        </mxCell>
        <mxCell id="YdwpByFGt3zNUZSkN5gy-34" value="コミット＆プッシュ" style="rounded=0;whiteSpace=wrap;html=1;" vertex="1" parent="WIyWlLk6GJQsqaUBKTNV-1">
          <mxGeometry x="300" y="750" width="120" height="40" as="geometry" />
        </mxCell>
        <mxCell id="YdwpByFGt3zNUZSkN5gy-38" style="edgeStyle=orthogonalEdgeStyle;rounded=0;orthogonalLoop=1;jettySize=auto;html=1;exitX=0.5;exitY=1;exitDx=0;exitDy=0;entryX=0.5;entryY=0;entryDx=0;entryDy=0;" edge="1" parent="WIyWlLk6GJQsqaUBKTNV-1" source="YdwpByFGt3zNUZSkN5gy-37" target="YdwpByFGt3zNUZSkN5gy-2">
          <mxGeometry relative="1" as="geometry" />
        </mxCell>
        <mxCell id="YdwpByFGt3zNUZSkN5gy-37" value="対応開始" style="ellipse;whiteSpace=wrap;html=1;aspect=fixed;" vertex="1" parent="WIyWlLk6GJQsqaUBKTNV-1">
          <mxGeometry x="335" width="50" height="50" as="geometry" />
        </mxCell>
        <mxCell id="YdwpByFGt3zNUZSkN5gy-43" style="edgeStyle=orthogonalEdgeStyle;rounded=0;orthogonalLoop=1;jettySize=auto;html=1;exitX=0.5;exitY=1;exitDx=0;exitDy=0;entryX=0.5;entryY=0;entryDx=0;entryDy=0;" edge="1" parent="WIyWlLk6GJQsqaUBKTNV-1" source="YdwpByFGt3zNUZSkN5gy-39" target="YdwpByFGt3zNUZSkN5gy-41">
          <mxGeometry relative="1" as="geometry" />
        </mxCell>
        <mxCell id="YdwpByFGt3zNUZSkN5gy-46" style="edgeStyle=orthogonalEdgeStyle;rounded=0;orthogonalLoop=1;jettySize=auto;html=1;exitX=0.5;exitY=1;exitDx=0;exitDy=0;entryX=0.5;entryY=0;entryDx=0;entryDy=0;" edge="1" parent="WIyWlLk6GJQsqaUBKTNV-1" source="YdwpByFGt3zNUZSkN5gy-39" target="YdwpByFGt3zNUZSkN5gy-44">
          <mxGeometry relative="1" as="geometry" />
        </mxCell>
        <mxCell id="YdwpByFGt3zNUZSkN5gy-39" value="PR作成" style="rounded=0;whiteSpace=wrap;html=1;" vertex="1" parent="WIyWlLk6GJQsqaUBKTNV-1">
          <mxGeometry x="300" y="830" width="120" height="40" as="geometry" />
        </mxCell>
        <mxCell id="YdwpByFGt3zNUZSkN5gy-48" style="edgeStyle=orthogonalEdgeStyle;rounded=0;orthogonalLoop=1;jettySize=auto;html=1;exitX=0.5;exitY=1;exitDx=0;exitDy=0;entryX=0.5;entryY=0;entryDx=0;entryDy=0;" edge="1" parent="WIyWlLk6GJQsqaUBKTNV-1" source="YdwpByFGt3zNUZSkN5gy-41" target="YdwpByFGt3zNUZSkN5gy-47">
          <mxGeometry relative="1" as="geometry" />
        </mxCell>
        <mxCell id="YdwpByFGt3zNUZSkN5gy-41" value="セルフチェック" style="rounded=0;whiteSpace=wrap;html=1;" vertex="1" parent="WIyWlLk6GJQsqaUBKTNV-1">
          <mxGeometry x="300" y="910" width="120" height="40" as="geometry" />
        </mxCell>
        <mxCell id="YdwpByFGt3zNUZSkN5gy-49" style="edgeStyle=orthogonalEdgeStyle;rounded=0;orthogonalLoop=1;jettySize=auto;html=1;exitX=0.5;exitY=1;exitDx=0;exitDy=0;entryX=0.5;entryY=0;entryDx=0;entryDy=0;" edge="1" parent="WIyWlLk6GJQsqaUBKTNV-1" source="YdwpByFGt3zNUZSkN5gy-44" target="YdwpByFGt3zNUZSkN5gy-47">
          <mxGeometry relative="1" as="geometry" />
        </mxCell>
        <mxCell id="YdwpByFGt3zNUZSkN5gy-44" value="静的解析結果・&lt;br&gt;カバレッジ取得" style="rounded=0;whiteSpace=wrap;html=1;" vertex="1" parent="WIyWlLk6GJQsqaUBKTNV-1">
          <mxGeometry x="500" y="910" width="120" height="40" as="geometry" />
        </mxCell>
        <mxCell id="YdwpByFGt3zNUZSkN5gy-51" style="edgeStyle=orthogonalEdgeStyle;rounded=0;orthogonalLoop=1;jettySize=auto;html=1;exitX=0.5;exitY=1;exitDx=0;exitDy=0;" edge="1" parent="WIyWlLk6GJQsqaUBKTNV-1" source="YdwpByFGt3zNUZSkN5gy-47" target="YdwpByFGt3zNUZSkN5gy-50">
          <mxGeometry relative="1" as="geometry" />
        </mxCell>
        <mxCell id="YdwpByFGt3zNUZSkN5gy-47" value="レビュー" style="rounded=0;whiteSpace=wrap;html=1;" vertex="1" parent="WIyWlLk6GJQsqaUBKTNV-1">
          <mxGeometry x="300" y="1000" width="120" height="40" as="geometry" />
        </mxCell>
        <mxCell id="YdwpByFGt3zNUZSkN5gy-53" style="edgeStyle=orthogonalEdgeStyle;rounded=0;orthogonalLoop=1;jettySize=auto;html=1;exitX=0.5;exitY=1;exitDx=0;exitDy=0;entryX=0.5;entryY=0;entryDx=0;entryDy=0;" edge="1" parent="WIyWlLk6GJQsqaUBKTNV-1" source="YdwpByFGt3zNUZSkN5gy-50" target="YdwpByFGt3zNUZSkN5gy-52">
          <mxGeometry relative="1" as="geometry" />
        </mxCell>
        <mxCell id="YdwpByFGt3zNUZSkN5gy-50" value="マージ承認&lt;br&gt;developに反映" style="rounded=0;whiteSpace=wrap;html=1;" vertex="1" parent="WIyWlLk6GJQsqaUBKTNV-1">
          <mxGeometry x="300" y="1080" width="120" height="40" as="geometry" />
        </mxCell>
        <mxCell id="YdwpByFGt3zNUZSkN5gy-67" style="edgeStyle=orthogonalEdgeStyle;rounded=0;orthogonalLoop=1;jettySize=auto;html=1;exitX=0.5;exitY=1;exitDx=0;exitDy=0;entryX=0.5;entryY=0;entryDx=0;entryDy=0;" edge="1" parent="WIyWlLk6GJQsqaUBKTNV-1" source="YdwpByFGt3zNUZSkN5gy-52" target="YdwpByFGt3zNUZSkN5gy-66">
          <mxGeometry relative="1" as="geometry" />
        </mxCell>
        <mxCell id="YdwpByFGt3zNUZSkN5gy-52" value="必要な環境に自動デプロイ" style="rounded=0;whiteSpace=wrap;html=1;" vertex="1" parent="WIyWlLk6GJQsqaUBKTNV-1">
          <mxGeometry x="300" y="1160" width="120" height="40" as="geometry" />
        </mxCell>
        <mxCell id="YdwpByFGt3zNUZSkN5gy-58" style="edgeStyle=orthogonalEdgeStyle;rounded=0;orthogonalLoop=1;jettySize=auto;html=1;exitX=0.5;exitY=1;exitDx=0;exitDy=0;entryX=0.5;entryY=0;entryDx=0;entryDy=0;" edge="1" parent="WIyWlLk6GJQsqaUBKTNV-1" source="YdwpByFGt3zNUZSkN5gy-54" target="YdwpByFGt3zNUZSkN5gy-14">
          <mxGeometry relative="1" as="geometry" />
        </mxCell>
        <mxCell id="YdwpByFGt3zNUZSkN5gy-54" value="開発環境でUT" style="rounded=0;whiteSpace=wrap;html=1;" vertex="1" parent="WIyWlLk6GJQsqaUBKTNV-1">
          <mxGeometry x="300" y="430" width="120" height="40" as="geometry" />
        </mxCell>
        <mxCell id="YdwpByFGt3zNUZSkN5gy-60" value="結果をPRに反映" style="text;html=1;strokeColor=none;fillColor=none;align=center;verticalAlign=middle;whiteSpace=wrap;rounded=0;" vertex="1" parent="WIyWlLk6GJQsqaUBKTNV-1">
          <mxGeometry x="510" y="980" width="130" height="30" as="geometry" />
        </mxCell>
        <mxCell id="YdwpByFGt3zNUZSkN5gy-63" value="PR作成後、Pipelineで自動実行" style="text;html=1;strokeColor=none;fillColor=none;align=center;verticalAlign=middle;whiteSpace=wrap;rounded=0;" vertex="1" parent="WIyWlLk6GJQsqaUBKTNV-1">
          <mxGeometry x="470" y="850" width="180" height="30" as="geometry" />
        </mxCell>
        <mxCell id="YdwpByFGt3zNUZSkN5gy-66" value="結合テスト" style="rounded=0;whiteSpace=wrap;html=1;" vertex="1" parent="WIyWlLk6GJQsqaUBKTNV-1">
          <mxGeometry x="300" y="1240" width="120" height="40" as="geometry" />
        </mxCell>
      </root>
    </mxGraphModel>
  </diagram>
</mxfile>
